# xmcd CD database file
#
# Track frame offsets:
#	150
#	19265
#	41542
#	79287
#	100077
#	117560
#	147655
#	175497
#	195395
#	226020
#	228682
#
# Disc length: 3329 seconds
#
# Revision: 0
# Processed by: cddbd v1.5.2PL0 Copyright (c) Steve Scherf et al.
# Submitted via: CDex 1.70beta2
#
DISCID=940cff0b
DTITLE=Linda Hopkins - Let the Good Times Roll (Live)
DYEAR=2006
DGENRE=Blues
TTITLE0=Let the Good Times Roll
TTITLE1=Down Home Blues
TTITLE2=Drown in My Own Tears
TTITLE3=Steppin' Out
TTITLE4=Evil Gal
TTITLE5=Deep in the Night
TTITLE6=Stormy Monday
TTITLE7=Black Drawers
TTITLE8=Georgia on My Mind
TTITLE9=Encore Introduction
TTITLE10=Every Day I Have the Blues
EXTD=YEAR: 2006
EXTT0=
EXTT1=
EXTT2=
EXTT3=
EXTT4=
EXTT5=
EXTT6=
EXTT7=
EXTT8=
EXTT9=
EXTT10=
PLAYORDER=
